<svg version="1" xmlns="http://www.w3.org/2000/svg" width="682.667" height="682.667" viewBox="0 0 512.000000 512.000000"><path d="M233.2 1c-20.9 2-46.7 7.8-64.8 14.5-23.1 8.5-50.3 23.7-70.1 39.2-11.6 9-28.9 25.8-38.5 37.3-17.3 20.5-34.9 51-44.3 76.4C3.8 200-1.6 238.7.8 272.3c2.5 36 10.2 64.6 25.7 96.2C39.8 395.6 53.7 414.8 76 437c44.8 44.7 99.9 69.7 163.7 74.2 33.5 2.4 70.8-2.8 102.8-14.4 26-9.4 56.5-26.9 77.5-44.6 40.9-34.2 71.5-82.9 83.9-133.2 6.9-27.9 9.2-53.1 7.3-79.2-2.5-36-10.1-64.5-25.7-96.3-20.1-41-49.9-75-88.5-100.7-15-10-37.8-21.6-54.5-27.6-13.8-5-36.5-10.6-51.5-12.7C277.2.6 246.1-.2 233.2 1zM166 121.3c5.2 2.5 6.2 9.5 2 13.7-1.7 1.7-3.4 2-11.5 2-11.2 0-17 1.8-24.9 7.9-6.3 4.9-10.4 5.4-14.1 1.6-1.8-1.7-2.5-3.5-2.5-6.1 0-3.1.7-4.4 4.2-7.6 7.4-6.8 17.7-11.6 28.3-13.1 4.5-.7 15.7.3 18.5 1.6zm208.6.8c6.8 2.1 17.2 8.5 20.4 12.6 2.8 3.6 2.6 8.8-.5 11.8-3.9 4-8.5 3.2-15.2-2.5-5.3-4.6-13.1-7-23.3-7-10.5 0-11.6-.3-13.6-4.2-1.8-3.5-1.1-7.8 1.6-10.3 4.2-3.8 19-4 30.6-.4zm-207.3 33.8c15.1 5.2 27.1 19.9 28.4 35 .7 7.8-.1 10.7-3.7 12.6-4 2.1-6.4 1.9-9.6-.8-2.1-1.9-2.9-3.7-3.6-8.7-1.4-10.7-8-18.9-17.5-22.1-5.5-1.8-15.4-.6-20.7 2.5-7.2 4.2-12.6 13.6-12.6 21.9 0 3.6-4.9 8.7-8.3 8.7-1.4 0-4-1.2-5.7-2.7-3.2-2.6-3.2-2.8-2.7-9.2 1.2-16.7 11.1-30 27.2-36.6 7.8-3.2 20.4-3.5 28.8-.6zm205.2.2c16.1 6 26.8 19.9 28.2 36.6.5 5.9.4 6.3-2.5 9.2-6 6.1-13.3 2.2-14.5-7.7-1.6-13.8-11.8-23-25.5-23.2-13.1-.1-23.2 9.2-25 23-.7 5-1.5 6.8-3.6 8.7-3.2 2.7-5.6 2.9-9.6.8-3.6-1.9-4.4-4.8-3.7-12.6 1-10.9 8.5-23.2 18.1-29.8 10.6-7.2 26.6-9.3 38.1-5zM91 242.2c7 3.2 13.6 9.8 16.9 16.8 2.2 4.6 2.6 6.9 2.6 14s-.4 9.4-2.6 14.1c-3.3 6.9-9.1 12.9-16.1 16.6-4.7 2.5-6.4 2.8-14.8 2.8s-10.2-.3-15.2-2.8c-23-11.3-25.5-44.1-4.4-58.6 9.8-6.8 22.8-7.9 33.6-2.9zm358.5-.1c7.1 3.3 14.8 11.5 17.4 18.4 2.8 7.4 2.8 17.5 0 24.9-2.7 7.3-9.6 14.8-16.7 18.3-5 2.5-6.8 2.8-15.2 2.8-8.4 0-10.1-.3-14.8-2.8-7-3.7-12.8-9.7-16.1-16.6-2.2-4.7-2.6-7-2.6-14.1s.4-9.4 2.6-14c2.8-5.9 9.4-13.2 14.3-15.7 9.5-5 22.2-5.5 31.1-1.2zm-119.4 67.8c3.4 3.5 3.7 7.1 1.4 17-4.5 19-19 33.7-38 38.6-4.9 1.2-14.4 1.5-57.3 1.5h-51.4l-2.9-2.9c-3.6-3.6-3.7-7-.3-11l2.5-3 52.7-.3 52.7-.3 5.6-2.6c11.2-5.3 17.8-14 19.9-26.4 1.7-9.9 1.9-10.4 4.8-11.9 4.1-2.3 7.1-1.9 10.3 1.3z"/><path d="M69.2 258.1c-12 6.1-12.2 23.6-.2 29.6 10.3 5.2 21.1.3 24.1-10.9 1.2-4.2 1.1-5.3-.7-9.4-4-9.7-14.3-13.9-23.2-9.3zM429.4 257.1c-4.1 1.2-9 6.7-10.5 11.8-3.4 11.3 7.5 22.9 19.4 20.7 11.5-2.2 17.2-14.9 11.2-25.2-4-6.9-11.9-9.7-20.1-7.3z"/></svg>